<?xml version="1.0" standalone="no"?>
<!DOCTYPE svg PUBLIC "-//W3C//DTD SVG 20010904//EN"
 "http://www.w3.org/TR/2001/REC-SVG-20010904/DTD/svg10.dtd">
<svg version="1.0" xmlns="http://www.w3.org/2000/svg"
 width="700.000000pt" height="700.000000pt" viewBox="0 0 700.000000 700.000000"
 preserveAspectRatio="xMidYMid meet">
<metadata>
Created by potrace 1.11, written by Peter Selinger 2001-2013
</metadata>
<g transform="translate(0.000000,700.000000) scale(0.100000,-0.100000)"
fill="#000000" stroke="none">
<path d="M3400 6692 c-30 -10 -66 -24 -80 -31 -14 -7 -188 -176 -387 -374
l-362 -361 -103 100 c-65 62 -126 111 -165 132 -185 97 -452 97 -651 0 -98
-48 -218 -169 -265 -268 -71 -150 -70 -139 -76 -712 l-6 -518 -491 -492 c-544
-546 -530 -530 -541 -672 -6 -79 12 -163 49 -226 12 -19 238 -253 504 -520
l483 -485 4 -415 c3 -356 6 -424 21 -475 87 -304 322 -475 651 -475 184 0 332
49 444 147 l53 46 401 -401 c344 -343 410 -405 459 -427 75 -34 158 -47 231
-35 121 19 119 18 612 511 l461 460 62 -66 c168 -175 301 -235 524 -235 215 0
353 53 483 184 90 90 131 162 167 293 21 74 22 101 25 583 l4 505 394 395
c300 301 399 406 414 440 30 70 42 156 31 224 -20 125 -32 139 -451 561 l-388
390 -3 600 c-4 579 -5 603 -26 678 -30 110 -78 200 -144 272 -75 82 -151 132
-258 168 -111 39 -295 49 -413 23 -205 -46 -389 -199 -454 -378 l-17 -48 -431
428 c-398 396 -435 431 -495 457 -84 37 -190 44 -270 17z m643 -860 l517 -517
0 -945 c0 -824 -2 -942 -14 -930 -8 8 -404 508 -880 1110 l-866 1095 352 352
c194 194 357 353 363 353 6 0 243 -233 528 -518z m-1915 160 c84 -27 138 -68
248 -190 114 -126 180 -208 1334 -1670 l885 -1121 92 -1 93 0 2 1323 3 1322
23 67 c61 180 191 275 392 285 270 15 433 -109 476 -360 12 -70 14 -395 12
-2128 l-3 -2044 -21 -62 c-45 -130 -108 -202 -222 -256 -59 -27 -79 -31 -177
-35 -182 -7 -265 27 -392 161 -82 87 -26 17 -1248 1562 -543 688 -995 1256
-1004 1263 -11 9 -42 12 -96 10 l-80 -3 -5 -1315 c-6 -1418 -3 -1340 -57
-1460 -45 -101 -153 -184 -274 -210 -83 -18 -240 -9 -312 19 -113 44 -200 135
-240 251 l-22 65 -3 2060 c-2 1500 0 2079 9 2128 22 133 105 254 212 308 98
51 266 64 375 31z m-828 -2529 l0 -678 -335 335 c-184 184 -335 339 -335 345
0 8 659 675 667 675 2 0 3 -305 3 -677z m5090 16 c7 -12 -45 -69 -236 -260
l-244 -244 0 495 0 495 236 -235 c129 -129 239 -242 244 -251z m-2920 -799
c420 -531 805 -1017 856 -1081 l92 -116 -454 -454 -454 -454 -427 430 -428
430 3 1133 3 1133 23 -28 c12 -15 366 -462 786 -993z"/>
</g>
</svg>
